<?xml version="1.0" encoding="UTF-8"?>
<svg width="74px" height="64px" viewBox="0 0 74 64" version="1.1" xmlns="http://www.w3.org/2000/svg" xmlns:xlink="http://www.w3.org/1999/xlink">
    <!-- Generator: Sketch 51.2 (57519) - http://www.bohemiancoding.com/sketch -->
    <title>bookshelf</title>
    <desc>Created with Sketch.</desc>
    <defs></defs>
    <g id="Sito2" stroke="none" stroke-width="1" fill="none" fill-rule="evenodd">
        <g id="COME-LAVORIAMO" transform="translate(-683.000000, -1475.000000)" fill="#000000" fill-rule="nonzero">
            <g id="bookshelf" transform="translate(683.000000, 1475.000000)">
                <path d="M70.2875676,57.0306306 L70.2875676,16.4586667 L62.9205045,16.4586667 L62.9205045,6.69535135 L48.4631351,6.69535135 L48.4631351,0.0818738739 L35.1974054,0.0818738739 L35.1974054,3.07790991 L25.5077477,3.07790991 L25.5077477,13.075027 L15.3958919,13.075027 L15.3958919,6.69535135 L3.51423423,6.69535135 L3.51423423,57.0306306 L0,57.0306306 L0,63.9181261 L73.8018018,63.9181261 L73.8018018,57.0306306 L70.2875676,57.0306306 Z M62.9205045,18.6508108 L68.0954234,18.6508108 L68.0954234,57.0306306 L62.9205045,57.0306306 L62.9205045,18.6508108 Z M48.4631351,48.0765405 L48.4631351,42.3455135 L48.4631351,16.958991 L48.4631351,11.227964 L48.4631351,8.8874955 L60.7283604,8.8874955 L60.7283604,16.4586667 L60.7283604,57.0306306 L48.4631351,57.0306306 L48.4631351,48.0765405 Z M37.3894054,3.07790991 L37.3894054,2.27401802 L46.2708468,2.27401802 L46.2708468,6.69535135 L46.2708468,11.2281081 L37.3894054,11.2281081 L37.3894054,3.07790991 Z M37.3894054,13.4202523 L46.2708468,13.4202523 L46.2708468,14.766991 L37.3894054,14.766991 L37.3894054,13.4202523 Z M37.3894054,16.958991 L46.2708468,16.958991 L46.2708468,42.3455135 L37.3894054,42.3455135 L37.3894054,16.958991 Z M37.3894054,44.5376577 L46.2708468,44.5376577 L46.2708468,45.8843964 L37.3894054,45.8843964 L37.3894054,44.5376577 Z M37.3894054,48.0765405 L46.2708468,48.0765405 L46.2708468,57.0306306 L37.3894054,57.0306306 L37.3894054,48.0765405 Z M27.6998919,13.075027 L27.6998919,5.27005405 L35.1972613,5.27005405 L35.1972613,11.2281081 L35.1972613,16.9591351 L35.1972613,42.3456577 L35.1972613,48.0766847 L35.1972613,57.0307748 L27.6998919,57.0307748 L27.6998919,13.075027 Z M23.7823423,15.2671712 L25.5078919,15.2671712 L25.5078919,57.0306306 L23.7823423,57.0306306 L23.7823423,15.2671712 Z M19.3134414,15.2671712 L21.5901982,15.2671712 L21.5901982,57.0306306 L19.3134414,57.0306306 L19.3134414,15.2671712 Z M15.3957477,15.2671712 L17.1212973,15.2671712 L17.1212973,57.0306306 L15.3957477,57.0306306 L15.3957477,15.2671712 Z M5.70637838,8.8874955 L13.2037477,8.8874955 L13.2037477,13.075027 L13.2037477,19.3392432 L5.70637838,19.3392432 L5.70637838,8.8874955 Z M5.70637838,21.5313874 L13.2037477,21.5313874 L13.2037477,44.4772613 L5.70637838,44.4772613 L5.70637838,21.5313874 Z M5.70637838,46.6694054 L13.2037477,46.6694054 L13.2037477,57.0306306 L5.70637838,57.0306306 L5.70637838,46.6694054 Z M71.6096577,61.725982 L2.19214414,61.725982 L2.19214414,59.2227748 L3.51423423,59.2227748 L13.2037477,59.2227748 L15.3958919,59.2227748 L25.5077477,59.2227748 L27.6998919,59.2227748 L35.1972613,59.2227748 L37.3894054,59.2227748 L46.2708468,59.2227748 L48.462991,59.2227748 L60.7282162,59.2227748 L62.9203604,59.2227748 L70.2874234,59.2227748 L71.6096577,59.2227748 L71.6096577,61.725982 Z" id="Shape"></path>
                <path d="M54.5957477,18.4572252 C51.7548108,18.4572252 49.4434595,20.7684324 49.4434595,23.6095135 C49.4434595,26.4505946 51.7548108,28.7618018 54.5957477,28.7618018 C57.4365405,28.7618018 59.748036,26.4505946 59.748036,23.6095135 C59.748036,20.7684324 57.4368288,18.4572252 54.5957477,18.4572252 Z M54.5957477,26.5698018 C52.9634595,26.5698018 51.6356036,25.2419459 51.6356036,23.6096577 C51.6356036,21.9773694 52.9634595,20.6495135 54.5957477,20.6495135 C56.228036,20.6495135 57.5558919,21.9773694 57.5558919,23.6096577 C57.5558919,25.2419459 56.228036,26.5698018 54.5957477,26.5698018 Z" id="Shape"></path>
                <rect id="Rectangle-path" x="50.538955" y="36.7452252" width="8.11228829" height="2.19214414"></rect>
                <rect id="Rectangle-path" x="50.538955" y="40.4791351" width="8.11228829" height="2.19214414"></rect>
                <rect id="Rectangle-path" x="50.538955" y="44.2146306" width="8.11228829" height="2.19214414"></rect>
            </g>
        </g>
    </g>
</svg>