<?xml version="1.0" encoding="UTF-8"?>
<svg width="56px" height="56px" viewBox="0 0 56 56" version="1.1" xmlns="http://www.w3.org/2000/svg" xmlns:xlink="http://www.w3.org/1999/xlink">
    <!-- Generator: Sketch 51.2 (57519) - http://www.bohemiancoding.com/sketch -->
    <title>clock</title>
    <desc>Created with Sketch.</desc>
    <defs></defs>
    <g id="Sito2" stroke="none" stroke-width="1" fill="none" fill-rule="evenodd">
        <g id="CONTATTI" transform="translate(-480.000000, -1177.000000)" fill="#000000" fill-rule="nonzero">
            <g id="clock" transform="translate(480.000000, 1177.000000)">
                <path d="M28,0 C12.536036,0 0,12.536036 0,28 C0,43.463964 12.536036,56 28,56 C43.463964,56 56,43.463964 56,28 C55.9801802,12.5442943 43.4557057,0.0198198198 28,0 Z M29.2012012,53.5375375 L29.2012012,48.6126126 C29.2012012,47.9492492 28.6633634,47.4114114 28,47.4114114 C27.3366366,47.4114114 26.7987988,47.9492492 26.7987988,48.6126126 L26.7987988,53.5375375 C13.6274775,52.9087087 3.09129129,42.3725225 2.46246246,29.2012012 L7.38738739,29.2012012 C8.05075075,29.2012012 8.58858859,28.6633634 8.58858859,28 C8.58858859,27.3366366 8.05075075,26.7987988 7.38738739,26.7987988 L2.46246246,26.7987988 C3.09129129,13.6274775 13.6274775,3.09129129 26.7987988,2.46246246 L26.7987988,7.38738739 C26.7987988,8.05075075 27.3366366,8.58858859 28,8.58858859 C28.6633634,8.58858859 29.2012012,8.05075075 29.2012012,7.38738739 L29.2012012,2.46246246 C42.3725225,3.09129129 52.9087087,13.6274775 53.5375375,26.7987988 L48.6126126,26.7987988 C47.9492492,26.7987988 47.4114114,27.3366366 47.4114114,28 C47.4114114,28.6633634 47.9492492,29.2012012 48.6126126,29.2012012 L48.6246246,29.2012012 L53.5495495,29.2012012 C52.9202703,42.3768769 42.3771772,52.9147147 29.2012012,53.5375375 Z" id="Shape"></path>
                <path d="M40.6621495,38.9593131 L29.3657402,27.3076337 L29.3657402,15.199967 C29.3657402,14.5372852 28.8361101,14 28.1828701,14 C27.5296301,14 27,14.5372852 27,15.199967 L27,27.7996202 C27.0013307,28.1144615 27.1244971,28.4161032 27.3430323,28.6395971 L38.9706453,40.6392668 C39.4279725,41.1131038 40.1773207,41.1212036 40.6444065,40.6572663 C41.1114923,40.1933291 41.1194767,39.43315 40.6621495,38.9593131 Z" id="Shape"></path>
            </g>
        </g>
    </g>
</svg>