<?xml version="1.0" encoding="UTF-8"?>
<svg width="57px" height="57px" viewBox="0 0 57 57" version="1.1" xmlns="http://www.w3.org/2000/svg" xmlns:xlink="http://www.w3.org/1999/xlink">
    <!-- Generator: Sketch 51.2 (57519) - http://www.bohemiancoding.com/sketch -->
    <title>phone-call</title>
    <desc>Created with Sketch.</desc>
    <defs></defs>
    <g id="Sito2" stroke="none" stroke-width="1" fill="none" fill-rule="evenodd">
        <g id="CONTATTI" transform="translate(-486.000000, -1408.000000)" fill="#000000" fill-rule="nonzero">
            <g id="phone-call" transform="translate(486.000000, 1408.000000)">
                <path d="M56.9610806,46.91453 C56.7798654,45.5448345 55.9891415,44.3638629 54.7919143,43.6745833 L40.7297579,35.5781634 C39.0074743,34.5865313 36.8225501,34.8752187 35.4167776,36.2808617 L32.6469664,39.0506604 C31.9099176,39.787829 30.7438368,39.853076 29.9351391,39.2022059 C27.7515691,37.4452138 25.6016076,35.5115621 23.5450853,33.454926 C21.4885629,31.3984129 19.5549026,29.2485842 17.7977793,27.064901 C17.1469063,26.2560838 17.2120305,25.0901314 17.9493255,24.3529629 L20.7190136,21.5831642 C22.124663,20.1776443 22.413721,17.9929762 21.4218383,16.270331 L13.3253818,2.20823819 C12.6359759,1.01089332 11.4551221,0.220296082 10.0854204,0.0390816415 C8.71559553,-0.142502122 7.36965366,0.314350316 6.39266704,1.29133252 L2.21917621,5.46492759 C-0.693686734,8.37790048 -0.740467847,13.7062452 2.08745044,20.4686707 C4.8066642,26.9709699 9.88118389,34.1289403 16.3760028,40.623976 C22.8710679,47.1188887 30.0290707,52.1933855 36.5315223,54.9125869 C39.8602447,56.304565 42.8411865,57.0001231 45.3580104,57 C47.9541159,57 50.0561883,56.2597538 51.5353333,54.7807386 L55.7088241,50.6071436 C56.6856876,49.6301614 57.1421728,48.2842256 56.9610806,46.91453 Z M39.8084162,37.1784395 L53.8705726,45.2748594 C54.5660107,45.6752054 55.0252043,46.3611612 55.1303387,47.1566827 C55.2187304,47.8242955 55.0452709,48.4816902 54.6520634,49.0114224 L35.9636242,38.345623 L36.7225862,37.5866644 C37.5389166,36.7703377 38.8081621,36.602542 39.8084162,37.1784395 Z M9.84314346,1.8698153 C10.6387917,1.97507233 11.3246275,2.43426381 11.7249753,3.12969885 L19.8214318,17.1917917 C20.3975781,18.1922874 20.2296586,19.461281 19.4133281,20.2774846 L18.7161664,20.9746431 L7.99171936,2.34808846 C8.43010763,2.02345363 8.95442542,1.84716349 9.5010258,1.84716349 C9.61440844,1.84716349 9.72877595,1.85467306 9.84314346,1.8698153 Z M50.2294016,53.4749359 C47.9152138,55.7891133 43.1821962,55.6921045 37.2439494,53.2087772 C30.9580451,50.580183 24.0109267,45.6470138 17.6819345,39.3181733 C11.3529423,32.9892098 6.41975085,26.0419996 3.79114472,19.7562469 C1.30768315,13.8179038 1.210797,9.08490763 3.52498481,6.77060718 L6.62324869,3.6722342 L17.3638229,22.3269805 L16.6435169,23.0472833 C15.2382369,24.4526801 15.1158673,26.6774813 16.3590139,28.2227283 C18.1575015,30.4578706 20.1359732,32.6575578 22.2391536,34.7607286 C24.3425802,36.8640226 26.5422773,38.8424854 28.7773066,40.6409649 C30.3223144,41.8841058 32.5471257,41.7618599 33.952775,40.35634 L34.6099265,39.6991915 L53.3243415,50.3798869 L50.2294016,53.4749359 Z" id="Shape"></path>
            </g>
        </g>
    </g>
</svg>