<?xml version="1.0" encoding="UTF-8"?>
<svg width="44px" height="58px" viewBox="0 0 44 58" version="1.1" xmlns="http://www.w3.org/2000/svg" xmlns:xlink="http://www.w3.org/1999/xlink">
    <!-- Generator: Sketch 51.2 (57519) - http://www.bohemiancoding.com/sketch -->
    <title>pin</title>
    <desc>Created with Sketch.</desc>
    <defs></defs>
    <g id="Sito2" stroke="none" stroke-width="1" fill="none" fill-rule="evenodd">
        <g id="CONTATTI" transform="translate(-486.000000, -1664.000000)" fill="#000000" fill-rule="nonzero">
            <g id="pin" transform="translate(486.000000, 1664.000000)">
                <path d="M22.005592,0 C9.85296701,0.0124383484 0.00622906619,9.84862775 0,21.9819539 C0,33.7870774 20.2954302,56.6623309 21.1561739,57.623476 C21.5733798,58.0887833 22.2894392,58.1282185 22.7554866,57.7116752 C22.7864904,57.6839716 22.8159369,57.6545719 22.8438261,57.623476 C23.7045698,56.6510233 44,33.7870774 44,21.9819539 C43.9936294,9.85300944 34.1536868,0.0186575226 22.005592,0 Z M22.005592,55.1471139 C18.1322454,50.6240781 2.26511498,31.6386354 2.26511498,21.9706464 C2.26511498,11.0855367 11.1031689,2.2615179 22.005592,2.2615179 C32.9080151,2.2615179 41.746069,11.0855367 41.746069,21.9706464 C41.746069,31.6386354 25.8789386,50.6466933 22.005592,55.1471139 Z" id="Shape"></path>
                <path d="M22.9886067,11 C16.3612578,11.0062678 10.9937377,16.3840444 11.0000055,23.0113933 C11.0062733,29.6387422 16.3840498,35.0062623 23.0113988,34.9999945 C29.6343317,34.9937267 35,29.6229302 35,22.9999973 C34.9874644,16.3733606 29.6152434,11.0062678 22.9886067,11 Z M22.9886067,32.7321888 C17.619947,32.7321888 13.2678112,28.380053 13.2678112,23.0113933 C13.2678112,17.6427335 17.619947,13.2905978 22.9886067,13.2905978 C28.3572665,13.2905978 32.7094022,17.6427335 32.7094022,23.0113933 C32.7031344,28.3774889 28.3545599,32.725921 22.9886067,32.7321888 Z" id="Shape"></path>
            </g>
        </g>
    </g>
</svg>