<?xml version="1.0" encoding="UTF-8"?>
<svg width="64px" height="64px" viewBox="0 0 64 64" version="1.1" xmlns="http://www.w3.org/2000/svg" xmlns:xlink="http://www.w3.org/1999/xlink">
    <!-- Generator: Sketch 51.2 (57519) - http://www.bohemiancoding.com/sketch -->
    <title>write-letter</title>
    <desc>Created with Sketch.</desc>
    <defs></defs>
    <g id="Sito2" stroke="none" stroke-width="1" fill="none" fill-rule="evenodd">
        <g id="COME-LAVORIAMO" transform="translate(-1152.000000, -1475.000000)" fill="#000000" fill-rule="nonzero">
            <g id="write-letter" transform="translate(1152.000000, 1475.000000)">
                <path d="M43.678099,34.1333503 C43.0896845,34.1333503 42.6128353,34.61093 42.6128353,35.1999619 L42.6128353,60.8000381 C42.6128353,61.3891971 42.1358591,61.8666497 41.5475715,61.8666497 L3.19591822,61.8666497 C2.60750373,61.8666497 2.13065446,61.38907 2.13065446,60.8000381 L2.13065446,3.19996187 C2.13065446,2.61080289 2.60763065,2.13335028 3.19591822,2.13335028 L41.5474446,2.13335028 C42.1358591,2.13335028 42.6127084,2.61092997 42.6127084,3.19996187 L42.6127084,9.60001271 C42.6127084,10.1891717 43.0896845,10.6666243 43.6779721,10.6666243 C44.2662597,10.6666243 44.7432359,10.1890446 44.7432359,9.60001271 L44.7432359,3.19996187 C44.7432359,1.432612 43.3123073,0 41.5473177,0 L3.19591822,0 C1.4309286,-1.26981899e-16 0,1.43273909 0,3.19996187 L0,60.8000381 C0,62.567388 1.4309286,64 3.19591822,64 L41.5474446,64 C43.3125611,64 44.7433628,62.5672609 44.7433628,60.8000381 L44.7433628,35.200089 C44.7434897,34.61093 44.2665135,34.1333503 43.678099,34.1333503 Z" id="Shape"></path>
                <path d="M62.4352464,3.83020619 C60.3552482,1.75038068 56.9854194,1.74299729 54.8963827,3.81365721 L54.8985469,3.81263881 L47.8635471,10.8464666 L11.0767695,47.6344783 C11.0660761,47.6441531 11.0628935,47.6580288 11.0532185,47.6675763 C10.9686895,47.7555405 10.9000734,47.8575077 10.8501708,47.9688951 L10.8416415,47.987099 L6.31654105,58.5458606 C6.17498049,58.8759492 6.208843,59.2550483 6.40654404,59.5549668 C6.60424507,59.8548854 6.93930568,60.0352693 7.29855379,60.0353966 C7.44329692,60.0356512 7.58663972,60.0062449 7.7195437,59.9488327 L18.2775173,55.423831 L18.2957216,55.4153019 C18.407366,55.3659095 18.5093354,55.2971676 18.597047,55.2122586 C18.606722,55.2025838 18.620598,55.1994013 18.6301457,55.1887081 L55.4178144,18.4040062 L62.4517957,11.36916 C64.5225008,9.28004155 64.5151173,5.91015901 62.4352464,3.83020619 Z M9.32877665,56.9366628 L12.1881217,50.2650032 L16.0005819,54.0773801 L9.32877665,56.9366628 Z M17.8767685,52.9223882 L13.3431388,48.3888575 L48.6199796,13.1139322 L53.1525909,17.6464446 L17.8767685,52.9223882 Z M54.6634189,16.1355222 L50.1308076,11.6030098 L51.8757452,9.85709192 L56.4093749,14.3906227 L54.6634189,16.1355222 Z M60.9430046,9.86243852 L60.9376579,9.86142012 L57.9148562,12.8841559 L53.3865731,8.3462969 L56.4093749,5.32890773 C57.2192744,4.51902587 58.3996247,4.20281295 59.5058848,4.49916709 C60.612145,4.79564852 61.4762754,5.65963283 61.7727633,6.76599613 C62.0691239,7.87223213 61.7529041,9.05255665 60.9430046,9.86243852 Z" id="Shape"></path>
                <path d="M35.1804486,9.62831858 L9.5629142,9.62831858 C8.97335344,9.62831858 8.49557522,10.135509 8.49557522,10.7610619 C8.49557522,11.3866148 8.97348061,11.8938053 9.5629142,11.8938053 L35.1804486,11.8938053 C35.7700094,11.8938053 36.2477876,11.3866148 36.2477876,10.7610619 C36.2477876,10.135509 35.7698822,9.62831858 35.1804486,9.62831858 Z" id="Shape"></path>
                <path d="M36.2477876,16.9911504 C36.2477876,16.3654626 35.7698822,15.8584071 35.1804486,15.8584071 L9.5629142,15.8584071 C8.97335344,15.8584071 8.49557522,16.3655975 8.49557522,16.9911504 C8.49557522,17.6167033 8.97348061,18.1238938 9.5629142,18.1238938 L35.1804486,18.1238938 C35.7698822,18.1240287 36.2477876,17.6168383 36.2477876,16.9911504 Z" id="Shape"></path>
                <path d="M9.57163013,22.6548673 C8.97725499,22.6548673 8.49557522,23.1620577 8.49557522,23.7876106 C8.49557522,24.4131635 8.9773832,24.920354 9.57163013,24.920354 L28.9416442,24.920354 C29.5360193,24.920354 30.0176991,24.4131635 30.0176991,23.7876106 C30.0176991,23.1620577 29.5358911,22.6548673 28.9416442,22.6548673 L9.57163013,22.6548673 Z" id="Shape"></path>
            </g>
        </g>
    </g>
</svg>